<?xml version="1.0" encoding="utf-8"?>
<!-- Generator: Adobe Illustrator 17.0.0, SVG Export Plug-In . SVG Version: 6.00 Build 0)  -->
<!DOCTYPE svg PUBLIC "-//W3C//DTD SVG 1.1//EN" "http://www.w3.org/Graphics/SVG/1.1/DTD/svg11.dtd">
<svg version="1.1" id="Layer_1" xmlns="http://www.w3.org/2000/svg" xmlns:xlink="http://www.w3.org/1999/xlink" x="0px" y="0px"
	 width="1080px" height="1080px" viewBox="0 0 1080 1080" enable-background="new 0 0 1080 1080" xml:space="preserve">
<path d="M609.64,664.069c205.952-118.907,491.318-332.271,433.328-432.711c-30.695-53.166-136.911-38.814-260.633,4.093
	c12.947,11.154,25.14,23.153,36.501,35.918c108.144-34.515,173.343-35.516,184.093-16.895
	c12.249,21.215-32.79,90.862-144.674,184.044c-48.898-180.963-235.238-288.023-416.201-239.124S154.032,434.633,202.93,615.596
	c15.417,57.054,45.463,109.093,87.167,150.969C153.401,816.901,70.528,821.091,58.276,799.87
	c-10.744-18.609,22.675-74.515,106.525-150.842c-5.411-16.201-9.723-32.748-12.907-49.529
	c-98.902,85.63-164.331,170.36-133.657,223.488C76.227,923.426,403.687,782.976,609.64,664.069z"/>
<path d="M869.432,546.715c-75.486,57.415-154.531,109.995-236.66,157.423c-82.161,47.398-167.234,89.56-254.711,126.233
	c167.412,84.263,371.436,16.857,455.699-150.555C854.627,638.355,866.768,593.054,869.432,546.715z"/>
<polygon points="898.699,804.484 931.312,906.399 1031.189,936.974 931.312,967.548 898.699,1069.464 868.125,967.548 
	766.21,936.974 868.125,906.399 "/>
<polygon points="148.741,25.03 182.74,131.278 286.864,163.153 182.74,195.027 148.741,301.276 116.866,195.027 10.618,163.153 
	116.866,131.278 "/>
<polygon points="1013.356,546.715 1031.368,603.003 1086.53,619.889 1031.368,636.775 1013.356,693.063 996.47,636.775 
	940.182,619.889 996.47,603.003 "/>
</svg>
